<?xml version="1.0" standalone="no"?>
<!DOCTYPE svg PUBLIC "-//W3C//DTD SVG 20010904//EN"
 "http://www.w3.org/TR/2001/REC-SVG-20010904/DTD/svg10.dtd">
<svg version="1.0" xmlns="http://www.w3.org/2000/svg"
 width="" height="" viewBox="0 0 1914.000000 1752.000000"
 preserveAspectRatio="xMidYMid meet">

<g transform="translate(0.000000,1752.000000) scale(0.100000,-0.100000)"
fill="#000000" stroke="none">
<path d="M1168 17453 c-218 -234 -466 -716 -658 -1278 -216 -634 -387 -1396
-459 -2050 -59 -529 -55 -999 8 -1312 38 -183 147 -476 248 -663 225 -416 547
-753 1021 -1067 385 -256 795 -411 1753 -663 475 -125 473 -125 589 -162 75
-25 91 -33 75 -40 -18 -7 -808 -222 -2320 -630 -247 -67 -452 -123 -455 -125
-2 -2 9 -27 24 -56 180 -324 533 -629 996 -861 360 -179 708 -269 1055 -270
255 -1 402 28 805 159 253 82 383 117 525 140 139 23 142 22 155 -27 72 -279
255 -785 460 -1269 259 -612 490 -1100 1272 -2684 217 -440 418 -850 447 -912
114 -248 105 -346 -46 -513 -162 -179 -203 -275 -203 -481 -1 -488 430 -1588
783 -2000 300 -350 711 -540 1337 -618 442 -55 1267 -81 1620 -52 915 77 1504
355 1845 871 297 451 529 1213 528 1735 -1 252 -41 397 -174 625 -99 170 -114
228 -85 321 7 24 192 415 411 869 919 1907 1292 2718 1727 3760 77 184 144
338 147 343 4 4 34 -4 66 -18 150 -67 470 -159 708 -204 281 -54 421 -65 797
-66 284 0 379 4 478 18 563 80 948 245 1233 527 112 111 181 205 246 335 43
84 97 225 89 232 -3 4 -951 246 -2519 645 -284 72 -516 133 -514 135 8 7 362
93 523 127 94 19 337 67 541 105 791 150 1115 243 1478 421 482 237 823 577
1067 1065 112 223 221 532 268 760 119 570 98 1306 -60 2095 -187 930 -534
1835 -944 2463 l-71 109 -6 -829 c-6 -807 -11 -936 -44 -1248 -87 -792 -310
-1337 -706 -1721 -166 -160 -299 -251 -524 -360 -675 -325 -1569 -367 -3830
-179 -165 14 -561 48 -880 75 -2163 185 -2354 187 -4790 45 -418 -24 -890 -51
-1050 -59 -1846 -97 -2776 -68 -3369 103 -933 270 -1420 897 -1555 2001 -45
367 -53 838 -26 1610 18 524 22 770 14 770 -4 0 -26 -21 -51 -47z"/>
</g>
</svg>
