<?xml version="1.0" encoding="UTF-8"?>
<!DOCTYPE svg PUBLIC "-//W3C//DTD SVG 1.1//EN" "http://www.w3.org/Graphics/SVG/1.1/DTD/svg11.dtd">
<svg xmlns="http://www.w3.org/2000/svg" version="1.1" width="500px" height="500px" style="shape-rendering:geometricPrecision; text-rendering:geometricPrecision; image-rendering:optimizeQuality; fill-rule:evenodd; clip-rule:evenodd" xmlns:xlink="http://www.w3.org/1999/xlink">
<g><path style="opacity:1" fill="#000000" d="M -0.5,-0.5 C 166.167,-0.5 332.833,-0.5 499.5,-0.5C 499.5,166.167 499.5,332.833 499.5,499.5C 332.833,499.5 166.167,499.5 -0.5,499.5C -0.5,332.833 -0.5,166.167 -0.5,-0.5 Z"/></g>
<g><path style="opacity:1" fill="#fbfbfb" d="M 227.5,58.5 C 299.489,53.3096 357.989,78.6429 403,134.5C 439.556,186.367 449.556,243.034 433,304.5C 405.735,382.425 351.235,427.591 269.5,440C 188.223,444.781 126.056,412.948 83,344.5C 57.4162,297.583 51.4162,248.249 65,196.5C 86.1667,130 130,86.1667 196.5,65C 206.85,62.2312 217.184,60.0645 227.5,58.5 Z"/></g>
<g><path style="opacity:1" fill="#9c9c9c" d="M 264.5,123.5 C 257.978,123.177 251.645,123.51 245.5,124.5C 244.957,124.44 244.624,124.107 244.5,123.5C 251.322,122.182 257.989,122.182 264.5,123.5 Z"/></g>
<g><path style="opacity:1" fill="#070707" d="M 334.5,197.5 C 334.183,193.298 334.517,189.298 335.5,185.5C 339.598,189.876 344.598,191.376 350.5,190C 354.203,186.604 355.369,182.437 354,177.5C 350.098,170.928 345.431,164.928 340,159.5C 334.025,151.274 332.359,142.274 335,132.5C 342.042,121.856 351.376,119.523 363,125.5C 363.667,129.833 363.667,134.167 363,138.5C 358.155,132.911 352.822,132.244 347,136.5C 344.879,140.997 345.212,145.33 348,149.5C 354.832,156.667 360.499,164.667 365,173.5C 368.22,183.153 366.386,191.653 359.5,199C 350.709,204.111 342.376,203.611 334.5,197.5 Z"/></g>
<g><path style="opacity:1" fill="#050505" d="M 131.5,123.5 C 136.5,123.5 141.5,123.5 146.5,123.5C 146.177,129.69 146.51,135.69 147.5,141.5C 148.486,151.902 149.986,162.235 152,172.5C 154.697,156.184 157.197,139.851 159.5,123.5C 163.167,123.5 166.833,123.5 170.5,123.5C 173.081,139.808 175.581,156.141 178,172.5C 181.902,156.434 183.402,140.1 182.5,123.5C 193.167,123.5 203.833,123.5 214.5,123.5C 214.285,133.691 216.285,143.357 220.5,152.5C 223.677,143.11 225.677,133.444 226.5,123.5C 231.544,123.173 236.544,123.506 241.5,124.5C 235.769,139.194 230.935,154.194 227,169.5C 226.085,180.121 226.585,190.621 228.5,201C 223.177,201.499 217.844,201.666 212.5,201.5C 214.277,191.571 214.777,181.571 214,171.5C 209.805,155.581 204.805,139.914 199,124.5C 197.059,128.249 195.726,132.249 195,136.5C 190.445,157.936 188.279,179.602 188.5,201.5C 183.167,201.5 177.833,201.5 172.5,201.5C 170.649,185.725 168.149,170.059 165,154.5C 161.718,169.963 159.218,185.63 157.5,201.5C 152.167,201.5 146.833,201.5 141.5,201.5C 141.159,175.091 137.825,149.091 131.5,123.5 Z"/></g>
<g><path style="opacity:1" fill="#050505" d="M 264.5,123.5 C 274.223,125.723 280.056,131.723 282,141.5C 282.667,148.5 282.667,155.5 282,162.5C 280.943,168.796 277.777,173.629 272.5,177C 265.632,178.307 261.632,175.474 260.5,168.5C 260.719,167.325 260.386,166.325 259.5,165.5C 258.185,170.986 258.185,176.32 259.5,181.5C 259.583,187.91 260.249,194.244 261.5,200.5C 256.208,201.495 250.875,201.828 245.5,201.5C 248.132,175.811 248.132,150.145 245.5,124.5C 251.645,123.51 257.978,123.177 264.5,123.5 Z"/></g>
<g><path style="opacity:1" fill="#060606" d="M 298.5,123.5 C 305.167,123.5 311.833,123.5 318.5,123.5C 319.475,150.046 323.809,176.046 331.5,201.5C 326.167,201.5 320.833,201.5 315.5,201.5C 315.573,193.146 315.24,184.812 314.5,176.5C 310.167,176.5 305.833,176.5 301.5,176.5C 300.668,184.805 300.335,193.138 300.5,201.5C 295.167,201.5 289.833,201.5 284.5,201.5C 291.866,176 296.533,150 298.5,123.5 Z"/></g>
<g><path style="opacity:1" fill="#696969" d="M 131.5,123.5 C 136.64,122.512 141.974,122.179 147.5,122.5C 147.5,128.833 147.5,135.167 147.5,141.5C 146.51,135.69 146.177,129.69 146.5,123.5C 141.5,123.5 136.5,123.5 131.5,123.5 Z"/></g>
<g><path style="opacity:1" fill="#f2f2f2" d="M 258.5,134.5 C 265.733,133.893 269.9,137.226 271,144.5C 272.011,151.024 271.345,157.357 269,163.5C 266.333,167.5 263.667,167.5 261,163.5C 260.529,161.754 259.862,160.087 259,158.5C 258.5,150.507 258.334,142.507 258.5,134.5 Z"/></g>
<g><path style="opacity:1" fill="#020202" d="M 394.5,164.5 C 395.167,155.5 395.833,146.5 396.5,137.5C 410.153,160.257 415.987,184.924 414,211.5C 410.363,232.139 398.53,245.639 378.5,252C 372.218,253.714 365.885,255.214 359.5,256.5C 354.448,256.45 349.448,256.95 344.5,258C 350.725,259.77 357.059,260.937 363.5,261.5C 375.477,264.271 387.144,268.271 398.5,273.5C 391.853,282.832 382.853,288.665 371.5,291C 359.213,292.909 347.546,291.076 336.5,285.5C 325.17,315.494 311.67,344.494 296,372.5C 296.265,375.82 297.931,378.487 301,380.5C 302.163,397.344 297.496,412.344 287,425.5C 280.389,428.259 273.556,430.425 266.5,432C 249.206,433.69 232.206,432.356 215.5,428C 211.612,425.778 208.779,422.612 207,418.5C 201.574,408.22 197.74,397.387 195.5,386C 196.541,383.277 198.041,380.777 200,378.5C 201.15,376.246 201.484,373.913 201,371.5C 186.961,342.878 173.795,313.878 161.5,284.5C 137.878,295.588 117.878,291.255 101.5,271.5C 108.677,268.368 116.01,265.534 123.5,263C 131.811,260.893 140.144,258.893 148.5,257C 131.801,254.311 116.468,248.311 102.5,239C 87.6534,225.799 81.4867,209.299 84,189.5C 85.9626,175.24 89.9626,161.574 96,148.5C 98.3973,143.373 101.064,138.373 104,133.5C 102.141,151.84 103.807,169.84 109,187.5C 117.7,203.688 131.366,211.022 150,209.5C 182.81,207.81 215.643,206.81 248.5,206.5C 281.539,207.36 314.539,209.027 347.5,211.5C 379.371,212.117 395.038,196.451 394.5,164.5 Z"/></g>
<g><path style="opacity:1" fill="#dddddd" d="M 307.5,140.5 C 309.255,149.348 310.922,158.348 312.5,167.5C 309.5,167.5 306.5,167.5 303.5,167.5C 305.375,158.585 306.708,149.585 307.5,140.5 Z"/></g>
<g><path style="opacity:1" fill="#595959" d="M 396.5,137.5 C 395.833,146.5 395.167,155.5 394.5,164.5C 394.334,154.828 394.5,145.161 395,135.5C 395.717,136.044 396.217,136.711 396.5,137.5 Z"/></g>
<g><path style="opacity:1" fill="#959595" d="M 260.5,168.5 C 259.515,172.634 259.182,176.968 259.5,181.5C 258.185,176.32 258.185,170.986 259.5,165.5C 260.386,166.325 260.719,167.325 260.5,168.5 Z"/></g>
<g><path style="opacity:1" fill="#b8b8b8" d="M 335.5,185.5 C 334.517,189.298 334.183,193.298 334.5,197.5C 333.189,193.317 333.189,188.984 334.5,184.5C 335.107,184.624 335.44,184.957 335.5,185.5 Z"/></g>
<g><path style="opacity:1" fill="#f2f2f2" d="M 185.5,224.5 C 189.514,224.334 193.514,224.501 197.5,225C 203.169,227.815 205.002,232.315 203,238.5C 202.027,240.64 200.527,242.307 198.5,243.5C 205.747,248.413 206.414,254.246 200.5,261C 195.777,263.235 190.777,264.069 185.5,263.5C 186.749,250.474 186.749,237.474 185.5,224.5 Z"/></g>
<g><path style="opacity:1" fill="#efefef" d="M 207.5,224.5 C 209.833,224.5 212.167,224.5 214.5,224.5C 213.404,235.133 213.237,245.8 214,256.5C 216,259.167 218,259.167 220,256.5C 220.5,245.839 220.667,235.172 220.5,224.5C 222.833,224.5 225.167,224.5 227.5,224.5C 226.737,235.134 226.237,245.801 226,256.5C 225.262,261.706 222.262,264.039 217,263.5C 211.869,263.375 208.869,260.709 208,255.5C 207.5,245.172 207.334,234.839 207.5,224.5 Z"/></g>
<g><path style="opacity:1" fill="#f1f1f1" d="M 231.5,224.5 C 235.514,224.334 239.514,224.501 243.5,225C 248.732,227.633 250.565,231.799 249,237.5C 248.031,240.302 246.198,242.302 243.5,243.5C 245.197,244.364 246.363,245.697 247,247.5C 247.256,250.557 247.756,253.557 248.5,256.5C 249.274,257.711 250.107,257.711 251,256.5C 252.654,263.808 250.321,265.808 244,262.5C 242.268,257.65 241.268,252.65 241,247.5C 239.989,246.663 238.822,246.33 237.5,246.5C 237.215,251.897 237.549,257.23 238.5,262.5C 236.257,263.474 233.924,263.808 231.5,263.5C 231.5,250.5 231.5,237.5 231.5,224.5 Z"/></g>
<g><path style="opacity:1" fill="#f1f1f1" d="M 263.5,240.5 C 266.167,240.5 268.833,240.5 271.5,240.5C 271.5,247.5 271.5,254.5 271.5,261.5C 271.082,262.222 270.416,262.722 269.5,263C 263.315,265.002 258.815,263.169 256,257.5C 252.387,247.661 252.72,237.995 257,228.5C 260.698,223.884 265.198,222.718 270.5,225C 271.769,227.139 271.769,229.305 270.5,231.5C 265.188,228.551 261.688,230.217 260,236.5C 258.902,243.385 259.569,250.051 262,256.5C 263.11,258.037 264.61,258.703 266.5,258.5C 266.5,254.167 266.5,249.833 266.5,245.5C 265.5,245.5 264.5,245.5 263.5,245.5C 263.5,243.833 263.5,242.167 263.5,240.5 Z"/></g>
<g><path style="opacity:1" fill="#f1f1f1" d="M 275.5,225.5 C 280.305,224.513 285.305,224.179 290.5,224.5C 290.5,226.5 290.5,228.5 290.5,230.5C 287.833,230.5 285.167,230.5 282.5,230.5C 282.5,233.5 282.5,236.5 282.5,239.5C 285.167,239.5 287.833,239.5 290.5,239.5C 290.5,241.5 290.5,243.5 290.5,245.5C 287.833,245.5 285.167,245.5 282.5,245.5C 282.5,249.5 282.5,253.5 282.5,257.5C 285.572,257.183 288.572,257.516 291.5,258.5C 290.691,260.071 290.357,261.738 290.5,263.5C 285.5,263.5 280.5,263.5 275.5,263.5C 276.742,250.682 276.742,238.015 275.5,225.5 Z"/></g>
<g><path style="opacity:1" fill="#f2f2f2" d="M 294.5,224.5 C 298.514,224.334 302.514,224.501 306.5,225C 312.567,228.717 314.067,233.884 311,240.5C 309.693,241.772 308.193,242.772 306.5,243.5C 308.197,244.364 309.363,245.697 310,247.5C 310.256,250.557 310.756,253.557 311.5,256.5C 312.274,257.711 313.107,257.711 314,256.5C 316.011,264.17 313.678,266.17 307,262.5C 305.97,258.227 305.303,253.894 305,249.5C 304.411,247.137 302.911,246.137 300.5,246.5C 300.313,252.212 300.646,257.879 301.5,263.5C 299.167,263.5 296.833,263.5 294.5,263.5C 294.5,250.5 294.5,237.5 294.5,224.5 Z"/></g>
<g><path style="opacity:1" fill="#050505" d="M 192.5,230.5 C 196.24,229.741 197.907,231.241 197.5,235C 197.729,238.603 196.062,240.436 192.5,240.5C 192.5,237.167 192.5,233.833 192.5,230.5 Z"/></g>
<g><path style="opacity:1" fill="#080808" d="M 237.5,230.5 C 243.749,231.099 245.082,234.099 241.5,239.5C 240.264,240.246 238.93,240.579 237.5,240.5C 237.5,237.167 237.5,233.833 237.5,230.5 Z"/></g>
<g><path style="opacity:1" fill="#0f0f0f" d="M 300.5,229.5 C 306.687,231.077 308.02,234.577 304.5,240C 303.207,240.49 301.873,240.657 300.5,240.5C 300.5,236.833 300.5,233.167 300.5,229.5 Z"/></g>
<g><path style="opacity:1" fill="#b2b2b2" d="M 263.5,240.5 C 266.287,239.523 269.287,239.19 272.5,239.5C 272.825,247.019 272.492,254.352 271.5,261.5C 271.5,254.5 271.5,247.5 271.5,240.5C 268.833,240.5 266.167,240.5 263.5,240.5 Z"/></g>
<g><path style="opacity:1" fill="#acacac" d="M 195.5,246.5 C 194.5,246.5 193.5,246.5 192.5,246.5C 192.5,250.167 192.5,253.833 192.5,257.5C 191.517,253.702 191.183,249.702 191.5,245.5C 193.099,245.232 194.432,245.566 195.5,246.5 Z"/></g>
<g><path style="opacity:1" fill="#0b0b0b" d="M 195.5,246.5 C 199.088,249.389 199.421,252.722 196.5,256.5C 195.264,257.246 193.93,257.579 192.5,257.5C 192.5,253.833 192.5,250.167 192.5,246.5C 193.5,246.5 194.5,246.5 195.5,246.5 Z"/></g>
<g><path style="opacity:1" fill="#c5c5c5" d="M 359.5,256.5 C 357.708,257.309 355.708,257.809 353.5,258C 357.004,258.986 360.337,260.153 363.5,261.5C 357.059,260.937 350.725,259.77 344.5,258C 349.448,256.95 354.448,256.45 359.5,256.5 Z"/></g>
</svg>
